<?xml version="1.0" encoding="UTF-8" standalone="no"?>
<!-- Created with Inkscape (http://www.inkscape.org/) -->

<svg
   width="80"
   height="15"
   viewBox="0 0 21.166666 3.96875"
   version="1.1"
   id="svg1"
   inkscape:version="1.4.2 (ebf0e940, 2025-05-08)"
   sodipodi:docname="1sa.svg"
   xmlns:inkscape="http://www.inkscape.org/namespaces/inkscape"
   xmlns:sodipodi="http://sodipodi.sourceforge.net/DTD/sodipodi-0.dtd"
   xmlns:xlink="http://www.w3.org/1999/xlink"
   xmlns="http://www.w3.org/2000/svg"
   xmlns:svg="http://www.w3.org/2000/svg">
  <sodipodi:namedview
     id="namedview1"
     pagecolor="#ffffff"
     bordercolor="#000000"
     borderopacity="0.25"
     inkscape:showpageshadow="2"
     inkscape:pageopacity="0.0"
     inkscape:pagecheckerboard="0"
     inkscape:deskcolor="#d1d1d1"
     inkscape:document-units="mm"
     inkscape:zoom="7.5245334"
     inkscape:cx="38.739944"
     inkscape:cy="13.35631"
     inkscape:window-width="1512"
     inkscape:window-height="920"
     inkscape:window-x="0"
     inkscape:window-y="34"
     inkscape:window-maximized="1"
     inkscape:current-layer="layer1" />
  <defs
     id="defs1">
    <linearGradient
       id="linearGradient1"
       inkscape:collect="always">
      <stop
         style="stop-color:#c8fac4;stop-opacity:0.81183934;"
         offset="0"
         id="stop1" />
      <stop
         style="stop-color:#ebedf8;stop-opacity:0;"
         offset="1"
         id="stop2" />
    </linearGradient>
    <linearGradient
       inkscape:collect="always"
       xlink:href="#linearGradient1"
       id="linearGradient2"
       x1="-0.07725925"
       y1="1.9934673"
       x2="21.249257"
       y2="1.9934673"
       gradientUnits="userSpaceOnUse" />
  </defs>
  <g
     inkscape:label="Layer 1"
     inkscape:groupmode="layer"
     id="layer1">
    <rect
       style="fill:url(#linearGradient2);stroke-width:0.291999;stroke-linecap:round;stroke-linejoin:round;stroke:#000000;stroke-opacity:1"
       id="rect1"
       width="21.034517"
       height="3.9869347"
       x="0.068740256"
       y="1.550884e-09" />
    <path
       style="font-weight:bold;font-size:2.82222px;line-height:1.3;font-family:Arial;-inkscape-font-specification:'Arial Bold';text-align:center;text-anchor:middle;fill:#0a0035;stroke-width:0.292;stroke-linecap:round;stroke-linejoin:round"
       d="M 5.1400378,2.8862498 H 4.7528094 V 1.4269084 Q 4.5405917,1.6253458 4.2525819,1.7204304 V 1.3690309 Q 4.404166,1.3194215 4.5819328,1.1816178 4.7596996,1.0424361 4.8258454,0.85777909 H 5.1400378 Z M 5.700899,2.2289261 6.0977737,2.190341 q 0.035829,0.1998154 0.1446939,0.2935219 0.110243,0.093707 0.296278,0.093707 0.1970593,0 0.296278,-0.082682 0.1005967,-0.08406 0.1005967,-0.1956812 0,-0.071658 -0.042719,-0.1212673 Q 6.85156,2.1269513 6.7468292,2.0897443 6.6751713,2.0649396 6.4202344,2.0015499 6.0922616,1.9202457 5.95997,1.8017345 5.773935,1.634992 5.773935,1.3952136 q 0,-0.1543402 0.086816,-0.2880098 0.088194,-0.13504762 0.2521808,-0.20532752 0.1653645,-0.0702799 0.3982528,-0.0702799 0.3803382,0 0.5718854,0.16674249 0.1929252,0.16674252 0.2025714,0.44510602 l -0.407899,0.017915 Q 6.85156,1.3056412 6.7647437,1.2381173 q -0.085438,-0.068902 -0.257693,-0.068902 -0.1777667,0 -0.2783635,0.073036 -0.064768,0.046853 -0.064768,0.1254013 0,0.071658 0.060634,0.1226453 0.07717,0.064768 0.3748261,0.1350477 0.2976561,0.07028 0.4395939,0.1460719 0.1433158,0.074414 0.223242,0.2053276 0.081304,0.1295355 0.081304,0.3210826 0,0.1736327 -0.096463,0.3252168 -0.096463,0.1515841 -0.2728514,0.2259981 -0.1763887,0.073036 -0.4395938,0.073036 -0.3830943,0 -0.5884219,-0.1763887 Q 5.7408621,2.5679232 5.700899,2.2289261 Z m 4.486889,0.6573237 H 9.7440599 L 9.5676711,2.4273634 H 8.7601413 L 8.5933988,2.8862498 H 8.1606952 L 8.9475544,0.86604732 H 9.37888 Z M 9.4367576,2.0869882 9.1583941,1.337336 8.8855427,2.0869882 Z M 11.732567,2.8862498 H 11.345339 V 2.1393536 q 0,-0.2370223 -0.0248,-0.3059242 -0.0248,-0.07028 -0.0813,-0.1088649 -0.05512,-0.038585 -0.133669,-0.038585 -0.100597,0 -0.180523,0.055122 -0.07993,0.055122 -0.110243,0.1460719 -0.02894,0.09095 -0.02894,0.3362411 V 2.8862498 H 10.398627 V 1.4227743 h 0.359668 v 0.2149738 q 0.191547,-0.2480467 0.482313,-0.2480467 0.128158,0 0.234267,0.046853 0.106108,0.045475 0.159852,0.1171332 0.05512,0.071658 0.07579,0.1626083 0.02205,0.090951 0.02205,0.2604491 z m 0.682129,-1.0169914 -0.351399,-0.06339 q 0.05926,-0.2122178 0.203949,-0.3141925 0.144694,-0.1019748 0.429948,-0.1019748 0.259071,0 0.38585,0.062012 0.126779,0.060634 0.177767,0.1557182 0.05236,0.093706 0.05236,0.3458873 l -0.0041,0.4519962 q 0,0.1929252 0.01792,0.2852537 0.01929,0.09095 0.07028,0.1956813 h -0.383094 q -0.01516,-0.038585 -0.03721,-0.1143771 -0.0096,-0.034451 -0.01378,-0.045475 -0.09922,0.096463 -0.212218,0.1446939 -0.112999,0.048231 -0.241156,0.048231 -0.225999,0 -0.356912,-0.1226453 -0.129536,-0.1226453 -0.129536,-0.3100584 0,-0.1240233 0.05926,-0.2204859 0.05926,-0.097841 0.165365,-0.1488281 0.107486,-0.052365 0.30868,-0.09095 0.271473,-0.050987 0.376204,-0.095085 V 1.892685 q 0,-0.111621 -0.05512,-0.1584743 -0.05512,-0.048231 -0.208083,-0.048231 -0.103353,0 -0.16123,0.041341 -0.05788,0.039963 -0.09371,0.1419379 z m 0.518142,0.3141924 q -0.07441,0.024805 -0.235644,0.059256 -0.161231,0.034451 -0.21084,0.067524 -0.07579,0.053743 -0.07579,0.1364256 0,0.081304 0.06063,0.1405598 0.06063,0.059256 0.15434,0.059256 0.104731,0 0.199815,-0.068902 0.07028,-0.052366 0.09233,-0.1281575 0.01516,-0.049609 0.01516,-0.1887911 z m 0.762055,0.702799 V 0.86604732 h 0.387228 V 2.8862498 Z m 0.600824,-1.4634755 h 0.412033 l 0.350022,1.03904 0.341753,-1.03904 h 0.401009 l -0.516764,1.408354 -0.09233,0.2549369 q -0.05099,0.1281574 -0.09784,0.1956812 -0.04548,0.067524 -0.106109,0.108865 -0.05926,0.042719 -0.14745,0.066146 -0.08682,0.023427 -0.19706,0.023427 -0.111621,0 -0.219108,-0.023427 L 14.389424,3.153589 q 0.09095,0.017914 0.163986,0.017914 0.135048,0 0.199815,-0.079926 0.06477,-0.078548 0.09922,-0.2011934 z m 2.423967,0 v 0.3086803 h -0.264583 v 0.5897999 q 0,0.1791449 0.0069,0.2094617 0.0083,0.028939 0.03445,0.048231 0.02756,0.019293 0.06615,0.019293 0.05374,0 0.155718,-0.037207 l 0.03307,0.3004121 q -0.135048,0.057878 -0.305924,0.057878 -0.104731,0 -0.188792,-0.034451 -0.08406,-0.035829 -0.124023,-0.09095 -0.03858,-0.0565 -0.05374,-0.1515841 -0.0124,-0.067524 -0.0124,-0.2728514 V 1.7314546 H 15.888728 V 1.4227743 h 0.177766 V 1.1320085 L 16.455101,0.90601039 V 1.4227743 Z M 16.988401,1.224337 V 0.86604732 H 17.37563 V 1.224337 Z m 0,1.6619128 V 1.4227743 h 0.387229 v 1.4634755 z m 2.060166,-1.0307718 -0.381716,0.068902 q -0.01929,-0.114377 -0.0882,-0.1722546 -0.06752,-0.057878 -0.176389,-0.057878 -0.144693,0 -0.23151,0.1005968 -0.08544,0.099219 -0.08544,0.3334849 0,0.2604491 0.08682,0.367936 0.08819,0.1074869 0.235645,0.1074869 0.110243,0 0.180522,-0.062012 0.07028,-0.06339 0.09922,-0.2163518 l 0.380338,0.064768 q -0.05926,0.2618271 -0.227376,0.3954967 -0.16812,0.1336696 -0.450618,0.1336696 -0.321083,0 -0.51263,-0.2025715 -0.190169,-0.2025715 -0.190169,-0.5608611 0,-0.3624238 0.191547,-0.5636172 0.191548,-0.2025715 0.518142,-0.2025715 0.26734,0 0.424436,0.1157552 0.158474,0.114377 0.227376,0.3500214 z m 0.157097,0.6132265 0.388606,-0.059256 q 0.0248,0.1129991 0.100597,0.1722547 0.07579,0.057878 0.212218,0.057878 0.150206,0 0.225998,-0.055121 0.05099,-0.038585 0.05099,-0.1033527 0,-0.044097 -0.02756,-0.073036 -0.02894,-0.027561 -0.129535,-0.050987 Q 19.558441,2.2537307 19.43304,2.1682924 19.259407,2.0497812 19.259407,1.8389415 q 0,-0.1901691 0.150206,-0.3197046 0.150206,-0.1295355 0.465777,-0.1295355 0.300412,0 0.446484,0.097841 0.146072,0.097841 0.201193,0.2893878 l -0.36518,0.067524 q -0.02343,-0.085438 -0.08957,-0.1309135 -0.06477,-0.045475 -0.186035,-0.045475 -0.152962,0 -0.219108,0.042719 -0.0441,0.030317 -0.0441,0.078548 0,0.041341 0.03859,0.07028 0.05237,0.038585 0.361046,0.1088649 0.310058,0.07028 0.432703,0.1722547 0.121268,0.1033528 0.121268,0.2880097 0,0.2011935 -0.168121,0.3458874 -0.168121,0.1446939 -0.497471,0.1446939 -0.299034,0 -0.474045,-0.1212673 -0.173633,-0.1212673 -0.227376,-0.3293509 z"
       id="text1"
       aria-label="1S Analytics" />
    <path
       style="fill:none;fill-opacity:1;stroke:#532bc9;stroke-width:0.291999;stroke-linecap:round;stroke-linejoin:round;stroke-opacity:1"
       d="M 0.49297028,3.1016045 1.4172895,2.0745832 1.7664768,2.4237705 2.4443109,1.5199917 2.8962003,1.9308002 3.7794387,1.1091831"
       id="path2" />
  </g>
</svg>
